HIERARCHY
ROOT Hips
{
  OFFSET 0 0 0
  CHANNELS 6 Xposition Yposition Zposition Zrotation Yrotation Xrotation
  JOINT LeftThigh
  {
    OFFSET 8.409438 0 -5.917753
    CHANNELS 3 Zrotation Yrotation Xrotation
    JOINT LeftLeg
    {
      OFFSET 0 0 -42.358652
      CHANNELS 3 Zrotation Yrotation Xrotation
      JOINT LeftFoot
      {
        OFFSET 0 0 -39.357303
        CHANNELS 3 Zrotation Yrotation Xrotation
      }
    }
  }
  JOINT RightThigh
  {
    OFFSET -8.409438 0 -5.917753
    CHANNELS 3 Zrotation Yrotation Xrotation
    JOINT RightLeg
    {
      OFFSET 0 0 -42.358652
      CHANNELS 3 Zrotation Yrotation Xrotation
      JOINT RightFoot
      {
        OFFSET 0 0 -39.357303
        CHANNELS 3 Zrotation Yrotation Xrotation
      }
    }
  }
  JOINT SpineLow
  {
    OFFSET 0 0 4.719101
    CHANNELS 3 Zrotation Yrotation Xrotation
    JOINT SpineMid
    {
      OFFSET 0 0 12.899191
      CHANNELS 3 Zrotation Yrotation Xrotation
      JOINT Chest
      {
        OFFSET 0 0 12.899191
        CHANNELS 3 Zrotation Yrotation Xrotation
        JOINT LeftShoulder
        {
          OFFSET 7.550562 1.41573 9.438202
          CHANNELS 3 Zrotation Yrotation Xrotation
          JOINT LeftArm
          {
            OFFSET 9.155056 0 4.247191
            CHANNELS 3 Zrotation Yrotation Xrotation
            JOINT LeftForearm
            {
              OFFSET 0 0 25.771955
              CHANNELS 3 Zrotation Yrotation Xrotation
              JOINT LeftHand
              {
                OFFSET 0 0 25.197169
                CHANNELS 3 Zrotation Yrotation Xrotation
              }
            }
          }
        }
        JOINT RightShoulder
        {
          OFFSET -7.550562 1.41573 9.438202
          CHANNELS 3 Zrotation Yrotation Xrotation
          JOINT RightArm
          {
            OFFSET -9.155056 0 4.247191
            CHANNELS 3 Zrotation Yrotation Xrotation
            JOINT RightForearm
            {
              OFFSET 0 0 -25.771955
              CHANNELS 3 Zrotation Yrotation Xrotation
              JOINT RightHand
              {
                OFFSET 0 0 -25.197169
                CHANNELS 3 Zrotation Yrotation Xrotation
              }
            }
          }
        }
        JOINT Neck
        {
          OFFSET 0 0 15.101124
          CHANNELS 3 Zrotation Yrotation Xrotation
          JOINT Head
          {
            OFFSET 0 0 11.325843
            CHANNELS 3 Zrotation Yrotation Xrotation
            End Site
            {
              OFFSET 0 0 14.157303
            }
          }
        }
      }
    }
  }
}
MOTION
Frames: 13
Frame Time: 0.0
0.0  93.25843  0.0  1.304923  10.347547  -89.665918  -8.60041  -12.849369  -7.927882  0.885141  -3.299894  11.997156  8.192316  0.090548  6.265068  -25.641702  6.019099  -7.749506  -18.604846  7.704061  5.419949  4.965156  0.83302  1.354314  4.064931  1.106495  0.384414  11.135208  2.95005  1.233815  11.135207  2.95005  1.233815  -49.767137  16.751165  1.169544  149.625588  45.200814  -141.245698  -33.449902  18.526592  76.26553  88.078907  -16.343706  -17.594203  6.358461  -29.824908  28.503218  77.223848  68.422321  38.6861  26.6109  28.394901  -29.955046  87.77615  8.222887  26.553475  -19.078362  0.692879  17.127628  -14.341506  -0.015599  12.882213  
0.0  93.25843  0.0  1.246592  11.077428  -89.616505  -9.034774  -13.107609  -8.5361  0.586984  -2.903463  12.971582  8.247401  0.109414  6.263638  -25.954009  5.917356  -7.820873  -18.764859  8.064082  5.801571  4.934277  0.892844  1.355499  3.995573  1.095431  0.369241  10.944554  2.923845  1.187562  10.944554  2.923845  1.187562  -49.790351  16.983729  1.285487  149.77384  45.199274  -141.174101  -33.159674  18.246155  76.317606  87.845262  -16.295666  -17.268011  6.153165  -29.636442  28.626517  77.644145  68.071834  38.708832  26.014003  28.345403  -30.070004  87.59236  8.47871  26.637314  -19.351173  0.666004  17.233573  -14.545855  -0.046846  12.961673  
0.0  93.25843  0.0  1.186036  11.87767  -89.571709  -9.975155  -13.374333  -9.559015  0.60445  -2.582528  14.387493  8.334616  0.179159  6.33708  -26.357521  5.769624  -7.941683  -19.303341  8.486609  6.091024  5.109121  1.002547  1.3998  3.913919  1.07715  0.359164  10.720309  2.877282  1.153549  10.720309  2.877282  1.153549  -49.696899  17.218085  1.362926  150.212613  45.282208  -141.055445  -33.174195  17.856942  76.215649  87.161976  -16.469999  -16.807964  6.035884  -29.44492  28.759431  78.69683  67.811519  39.497721  24.999734  28.053729  -30.22489  87.391289  9.012072  26.785402  -19.575516  0.675423  17.340737  -14.71483  -0.049569  13.043051  
0.0  93.25843  0.0  1.108824  12.673652  -89.54865  -10.116126  -13.536181  -10.3003  0.119827  -2.178514  15.576872  8.333659  0.199154  6.314946  -26.544059  5.656612  -8.022997  -19.676738  8.95848  6.517186  5.080136  1.076762  1.440196  3.808225  1.049992  0.348647  10.430103  2.806957  1.116026  10.430104  2.806957  1.116026  -49.523353  17.432349  1.374247  150.495396  45.356637  -140.913841  -33.148655  17.961022  76.180514  86.96278  -16.643605  -17.078795  5.90477  -29.179287  28.805803  79.771219  67.430105  40.297789  24.143909  27.981275  -30.679588  86.986103  9.288072  26.89366  -19.787175  0.731536  17.431035  -14.875547  -0.016361  13.113236  
0.0  93.25843  0.0  1.036552  13.554215  -89.531808  -10.412771  -13.695398  -11.281131  -0.4662  -1.762234  16.894501  8.301645  0.284884  6.334157  -26.886932  5.466949  -8.156779  -20.384846  9.436769  6.860055  5.247237  1.221695  1.500806  3.680146  1.01712  0.334661  10.078442  2.721859  1.067479  10.078442  2.721859  1.067479  -49.205382  17.616128  1.402053  150.562964  45.406354  -140.850561  -33.611498  17.982895  75.983361  86.653004  -16.771238  -17.204587  6.015527  -28.958668  28.92721  80.475383  66.747062  41.075312  22.941572  28.236471  -31.065067  86.736642  9.675566  27.008989  -19.868379  0.815156  17.534293  -14.939157  0.040796  13.193688  
0.0  93.25843  0.0  0.914856  14.38563  -89.559847  -10.244234  -13.868525  -12.098619  -1.200853  -1.244689  18.197104  8.215338  0.32425  6.307623  -26.943503  5.241496  -8.201492  -20.760684  10.031176  7.345134  5.197509  1.338639  1.52824  3.555762  0.976896  0.318548  9.736704  2.616767  1.012516  9.736704  2.616767  1.012516  -48.98497  17.775673  1.423948  150.752369  45.385729  -140.774925  -33.96339  18.334271  75.879507  86.692428  -16.778874  -17.581119  5.916291  -28.721343  28.927412  80.060092  66.408745  40.974732  22.453319  28.617895  -31.870409  86.561748  9.908781  27.020765  -20.043297  0.917183  17.614497  -15.073591  0.109808  13.257737  
0.0  93.25843  0.0  0.808516  15.262971  -89.567197  -10.373302  -14.083906  -13.09397  -1.652345  -0.73532  19.752652  8.114452  0.403599  6.287313  -27.141783  4.958423  -8.396469  -21.251041  10.68101  7.900924  5.169326  1.502008  1.522809  3.428181  0.937639  0.300488  9.386267  2.51442  0.952656  9.386266  2.51442  0.952656  -48.687832  17.839904  1.473786  150.552245  45.332769  -140.775538  -34.435045  18.495543  75.812062  86.905705  -16.618245  -17.98655  5.957188  -28.531886  29.005093  80.205048  65.736894  41.201389  21.49389  29.010147  -32.26634  86.503608  10.172398  26.857967  -20.147298  1.038533  17.683406  -15.155312  0.195739  13.313743  
0.0  93.25843  0.0  0.635587  15.906608  -89.677467  -10.128406  -14.270604  -13.813608  -2.33281  -0.195126  21.049274  8.061146  0.455859  6.26914  -26.953775  4.671287  -8.473185  -21.587825  11.388111  8.508481  5.049774  1.645639  1.542014  3.315433  0.871735  0.27925  9.07584  2.339367  0.88138  9.075841  2.339367  0.88138  -48.457375  18.078604  1.504798  150.756017  45.320013  -140.752459  -34.50502  18.588364  75.992957  87.235109  -16.200272  -18.395595  5.611257  -28.085633  29.09716  79.930687  65.380026  40.939381  21.002282  29.319127  -33.118092  86.466753  10.364385  26.370298  -20.299733  1.216666  17.724649  -15.274903  0.323848  13.351026  
0.0  93.25843  0.0  0.501991  16.484847  -89.782627  -9.994432  -14.291964  -14.53785  -2.414683  -0.0715  22.723908  7.652431  0.592135  6.03923  -26.458508  4.405482  -8.547037  -21.978577  12.107741  9.179987  4.871539  1.764368  1.54316  3.149481  0.811718  0.235647  8.619507  2.183737  0.748725  8.619507  2.183737  0.748726  -47.862572  18.223893  1.681993  151.029193  45.29019  -140.73625  -34.345865  18.478642  76.483994  87.651713  -15.444944  -18.794983  5.857146  -27.807087  29.383481  79.531131  65.158412  40.796209  20.215992  29.501202  -34.128763  86.453966  10.408457  25.440891  -20.211776  1.446331  17.808701  -15.215641  0.496272  13.421211  
0.0  93.25843  0.0  0.303357  16.768045  -89.922457  -9.483132  -14.373464  -15.062193  -3.048031  0.20301  23.794618  7.467593  0.755951  6.013231  -25.802509  4.056301  -8.67906  -22.448609  12.87297  9.860855  4.803271  1.941376  1.538144  3.003024  0.727641  0.193273  8.216449  1.961414  0.617799  8.216449  1.961414  0.617799  -47.17805  18.60583  1.744848  151.254344  45.265658  -140.784901  -33.743515  17.938197  77.204566  88.151407  -14.300649  -19.129618  5.7356  -27.335212  29.483505  79.877027  64.630615  41.176689  19.154588  29.504529  -35.567085  86.457478  10.207402  24.11296  -20.050649  1.741788  17.875189  -15.103232  0.720905  13.479857  
0.0  93.25843  0.0  0.361727  17.296748  -89.842633  -8.217193  -14.490955  -15.1278  -3.743047  0.669952  24.673383  6.851113  0.889227  5.572614  -25.387085  3.870598  -9.036973  -22.268374  13.673338  10.767081  4.323676  2.006241  1.475731  2.772009  0.691036  0.131165  7.582601  1.870995  0.437241  7.582601  1.870995  0.437241  -46.318104  18.737259  1.855157  151.809657  45.106172  -140.672879  -32.800645  17.183958  78.137393  88.778664  -12.781417  -19.393248  6.145027  -27.038125  29.641083  79.84293  64.274748  41.59671  17.673868  29.185224  -37.487348  86.492801  9.786081  22.335141  -19.795122  2.049696  17.951161  -14.920356  0.957396  13.545317  
0.0  93.25843  0.0  0.173186  17.088636  -89.836006  -7.53159  -14.652278  -15.506665  -4.266589  0.99556  25.418541  6.81804  1.023894  5.526155  -24.579446  3.407529  -9.394743  -22.533589  14.444715  11.476585  4.269615  2.220658  1.443387  2.652557  0.618615  0.072332  7.253786  1.680653  0.265293  7.253786  1.680653  0.265293  -45.364601  18.964281  1.89976  152.173879  45.126977  -140.630944  -31.60847  16.191339  79.164625  89.654103  -10.776703  -19.587602  6.083534  -26.584085  29.444646  80.608169  63.483114  42.526706  15.764155  28.344699  -39.899151  86.460199  9.229467  20.220414  -19.485278  2.339527  18.035873  -14.696272  1.181678  13.616168  
0.0  93.25843  0.0  0.003171  16.539543  -89.735317  -6.352245  -14.758123  -15.717136  -4.771766  1.274557  25.992839  6.736294  1.099174  5.392938  -23.688231  2.880701  -9.933801  -22.486486  15.236786  12.240266  4.371278  2.455051  1.419411  2.559391  0.556277  0.003795  6.997061  1.51817  0.069201  6.997061  1.51817  0.069201  -44.301371  19.020278  1.930375  152.900813  45.066257  -140.350266  -30.020985  15.098869  80.335364  90.842232  -8.220863  -19.568501  5.9643  -26.044744  29.141786  81.552464  62.582661  43.525055  13.51535  26.793025  -42.760885  86.401116  8.633994  17.950637  -19.141377  2.616481  18.111856  -14.446247  1.397637  13.679527  
